<?xml version="1.0" encoding="UTF-8" standalone="no"?>
<!-- Created with Inkscape (http://www.inkscape.org/) -->

<svg
   width="512"
   height="512"
   viewBox="0 0 135.46666 135.46667"
   version="1.1"
   id="svg5"
   xml:space="preserve"
   inkscape:version="1.2.2 (732a01da63, 2022-12-09)"
   sodipodi:docname="cart.svg"
   xmlns:inkscape="http://www.inkscape.org/namespaces/inkscape"
   xmlns:sodipodi="http://sodipodi.sourceforge.net/DTD/sodipodi-0.dtd"
   xmlns="http://www.w3.org/2000/svg"
   xmlns:svg="http://www.w3.org/2000/svg"><sodipodi:namedview
     id="namedview7"
     pagecolor="#ffffff"
     bordercolor="#000000"
     borderopacity="0.25"
     inkscape:showpageshadow="2"
     inkscape:pageopacity="0.0"
     inkscape:pagecheckerboard="0"
     inkscape:deskcolor="#d1d1d1"
     inkscape:document-units="mm"
     showgrid="false"
     inkscape:zoom="0.46769781"
     inkscape:cx="145.39303"
     inkscape:cy="220.22767"
     inkscape:window-width="1366"
     inkscape:window-height="705"
     inkscape:window-x="-8"
     inkscape:window-y="-8"
     inkscape:window-maximized="1"
     inkscape:current-layer="layer1" /><defs
     id="defs2" /><g
     inkscape:label="Capa 1"
     inkscape:groupmode="layer"
     id="layer1"><path
       style="fill:#ffffff;stroke-width:0.325583"
       d="m 44.422473,135.17149 c -9.100215,-1.51559 -14.96776,-10.44533 -12.662215,-19.27045 0.270542,-1.03558 0.415591,-2.00597 0.322331,-2.15641 -0.09326,-0.15046 -0.600943,-0.36801 -1.128184,-0.48346 -1.399934,-0.30657 -4.533521,-2.43465 -6.105561,-4.14643 -5.41099,-5.89196 -5.276005,-15.417932 0.298479,-21.064112 2.995865,-3.0344 6.3964,-4.51605 11.063766,-4.82063 l 3.149334,-0.20552 -13.632832,-36.24831 -13.632835,-36.2483 -4.3793818,-0.16254 c -4.129473,-0.15328 -4.445021,-0.21253 -5.529642,-1.0382198 -2.98723003,-2.27411 -2.90058903,-6.23127 0.186808,-8.53206002 0.827885,-0.61696 1.428835,-0.67823 7.554088,-0.77008 7.3619148,-0.11047 8.3141678,0.0801 9.6926068,1.93894002 0.377875,0.50958 7.468077,18.9566598 15.75601,40.9935498 l 15.068962,40.06702 32.559194,0.0828 32.559179,0.0828 4.18717,-25.11528 c 2.30293,-13.8134 4.26441,-25.51759 4.35885,-26.00932 l 0.1717,-0.894 H 85.078711 c -43.637974,0 -40.515339,0.16336 -42.334734,-2.21484 -0.718519,-0.93923 -0.87829,-1.48839 -0.87829,-3.01884 0,-2.02118 0.542593,-3.0693 2.24499,-4.33659 0.897169,-0.66788 1.054202,-0.67062 43.673464,-0.76368 23.525169,-0.0514 43.258099,-0.006 43.850949,0.0994 1.44187,0.25789 3.54952,2.37966 3.82661,3.85224 0.26363,1.40114 -10.04857,63.7859 -10.85416,65.6634 -0.29531,0.68821 -1.04686,1.63912 -1.67013,2.11312 l -1.13322,0.86184 -43.613739,0.16255 c -43.414419,0.1618 -43.617858,0.16561 -44.514108,0.83283 -1.711035,1.27379 -2.244948,2.31279 -2.244948,4.36872 0,2.055822 0.533812,3.094722 2.244745,4.368732 0.883915,0.65817 1.310815,0.67321 23.645713,0.83282 l 22.745558,0.16255 1.15122,0.87566 c 2.36753,1.80087 2.86488,4.94746 1.13864,7.20393 -1.58183,2.06768 -2.09479,2.16097 -11.88526,2.16097 h -8.79338 l 0.44121,1.8693 c 2.06185,8.73568 -3.922248,17.5015 -12.917542,18.92231 -2.370763,0.37447 -2.433757,0.37426 -4.779826,-0.0165 z m 4.560969,-10.81548 c 3.350262,-1.39564 4.166988,-5.77473 1.561505,-8.37242 -2.11508,-2.10877 -5.13522,-2.10877 -7.2503,0 -4.032381,4.02032 0.416935,10.56856 5.688795,8.37242 z m 57.316718,10.49492 c -4.27829,-0.8377 -8.671709,-4.24353 -10.667429,-8.26951 -6.65542,-13.42607 7.449429,-27.461242 20.924709,-20.82131 2.83908,1.39896 5.65829,4.25826 7.01163,7.11134 5.50503,11.60559 -4.59525,24.461 -17.26891,21.97948 z m 5.28904,-10.49492 c 3.35026,-1.39564 4.16699,-5.77473 1.56151,-8.37242 -3.66345,-3.6525 -9.66665,-0.38098 -8.70258,4.74257 0.57591,3.06068 4.14834,4.87655 7.14107,3.62985 z"
       id="path2308-5"
       inkscape:export-filename="cart-buy.png"
       inkscape:export-xdpi="96"
       inkscape:export-ydpi="96" /></g></svg>
